<svg width="24" height="24" viewBox="0 0 24 24" fill="none" xmlns="http://www.w3.org/2000/svg">
<path fill-rule="evenodd" clip-rule="evenodd" d="M12.25 0.5C10.7364 0.5 9.5 1.73636 9.5 3.25C9.5 4.76364 10.7364 6 12.25 6C13.7636 6 15 4.76364 15 3.25C15 1.73636 13.7636 0.5 12.25 0.5ZM10.5 3.25C10.5 2.28864 11.2886 1.5 12.25 1.5C13.2114 1.5 14 2.28864 14 3.25C14 4.21136 13.2114 5 12.25 5C11.2886 5 10.5 4.21136 10.5 3.25Z" fill="white"/>
<path fill-rule="evenodd" clip-rule="evenodd" d="M3.62953 5.51707L3.09738 5.37435L2.43225 9.36513L3.19123 9.56933C4.73244 9.98486 5.83558 10.2823 7.5 10.4551V22.5H11.5V16.5H12.5V22.5H16.5V10.4551C18.1644 10.2823 19.2676 9.98486 20.8088 9.56933L21.5678 9.36513L20.9026 5.37435L20.3705 5.51707C17.8142 6.20266 14.8 6.5 12 6.5C9.20002 6.5 6.18582 6.20266 3.62953 5.51707ZM3.56772 8.63509L3.90372 6.61909C6.44327 7.23599 9.32883 7.5 12 7.5C14.6712 7.5 17.5567 7.23599 20.0963 6.61909L20.4323 8.63509C18.824 9.06834 17.7498 9.34946 15.9577 9.5018L15.5 9.5407V21.5H13.5V15.5H10.5V21.5H8.5V9.5407L8.04235 9.5018C6.25018 9.34946 5.17598 9.06834 3.56772 8.63509Z" fill="white"/>
</svg>
